<svg width="26" height="26" viewBox="0 0 26 26" fill="none" xmlns="http://www.w3.org/2000/svg">
    <path fill-rule="evenodd" clip-rule="evenodd" d="M13 24.0312C19.2131 24.0312 24.25 18.9944 24.25 12.7812C24.25 6.56812 19.2131 1.53125 13 1.53125C6.78687 1.53125 1.75 6.56812 1.75 12.7812C1.75 18.9944 6.78687 24.0312 13 24.0312ZM13 25.2812C19.9037 25.2812 25.5 19.685 25.5 12.7812C25.5 5.8775 19.9037 0.28125 13 0.28125C6.09625 0.28125 0.5 5.8775 0.5 12.7812C0.5 19.685 6.09625 25.2812 13 25.2812Z" fill="currentColor" />
    <path d="M5.5 20.05C5.5 19.4044 5.9825 18.8587 6.625 18.7875C11.4469 18.2537 14.575 18.3019 19.3862 18.7994C19.6265 18.8246 19.8542 18.9192 20.0416 19.0717C20.2289 19.2243 20.3678 19.428 20.4412 19.6582C20.5147 19.8883 20.5195 20.1349 20.4551 20.3677C20.3908 20.6006 20.26 20.8096 20.0788 20.9694C14.4006 25.9187 11.1556 25.8506 5.9 20.9744C5.64375 20.7369 5.5 20.3994 5.5 20.0506V20.05Z" fill="currentColor" />
    <path fill-rule="evenodd" clip-rule="evenodd" d="M19.3219 19.4207C14.5488 18.9269 11.4656 18.8807 6.69313 19.4088C6.53603 19.4271 6.3912 19.5027 6.28638 19.6211C6.18155 19.7396 6.12409 19.8925 6.125 20.0507C6.125 20.2294 6.19938 20.3988 6.325 20.5163C8.93 22.9325 10.9038 24.0244 12.8331 24.0313C14.7694 24.0382 16.8494 22.955 19.6681 20.4988C19.7577 20.4191 19.8221 20.3151 19.8537 20.1994C19.8852 20.0838 19.8825 19.9614 19.8458 19.8473C19.8092 19.7332 19.7401 19.6322 19.6471 19.5565C19.5541 19.4809 19.4411 19.4339 19.3219 19.4213V19.4207ZM6.55625 18.1663C11.4288 17.6269 14.6025 17.6757 19.4513 18.1775C19.8127 18.2153 20.1553 18.3576 20.4371 18.587C20.7189 18.8164 20.9277 19.1231 21.038 19.4693C21.1482 19.8156 21.1551 20.1865 21.0577 20.5367C20.9604 20.8868 20.7631 21.2009 20.49 21.4407C17.6306 23.9332 15.2494 25.2907 12.8294 25.2813C10.4025 25.2725 8.12625 23.8919 5.47563 21.4325C5.28585 21.2558 5.13456 21.0418 5.03122 20.8039C4.92787 20.566 4.8747 20.3094 4.875 20.05C4.87409 19.5841 5.04513 19.1341 5.35536 18.7864C5.66558 18.4387 6.09318 18.2177 6.55625 18.1657V18.1663Z" fill="currentColor" />
    <path d="M18 10.2812C18 11.6073 17.4732 12.8791 16.5355 13.8168C15.5979 14.7545 14.3261 15.2812 13 15.2812C11.6739 15.2812 10.4021 14.7545 9.46447 13.8168C8.52678 12.8791 8 11.6073 8 10.2812C8 8.95517 8.52678 7.6834 9.46447 6.74572C10.4021 5.80803 11.6739 5.28125 13 5.28125C14.3261 5.28125 15.5979 5.80803 16.5355 6.74572C17.4732 7.6834 18 8.95517 18 10.2812Z" fill="currentColor" />
    <path fill-rule="evenodd" clip-rule="evenodd" d="M13 14.0312C13.9946 14.0312 14.9484 13.6362 15.6517 12.9329C16.3549 12.2296 16.75 11.2758 16.75 10.2812C16.75 9.28669 16.3549 8.33286 15.6517 7.6296C14.9484 6.92634 13.9946 6.53125 13 6.53125C12.0054 6.53125 11.0516 6.92634 10.3483 7.6296C9.64509 8.33286 9.25 9.28669 9.25 10.2812C9.25 11.2758 9.64509 12.2296 10.3483 12.9329C11.0516 13.6362 12.0054 14.0312 13 14.0312ZM13 15.2812C14.3261 15.2812 15.5979 14.7545 16.5355 13.8168C17.4732 12.8791 18 11.6073 18 10.2812C18 8.95517 17.4732 7.6834 16.5355 6.74572C15.5979 5.80803 14.3261 5.28125 13 5.28125C11.6739 5.28125 10.4021 5.80803 9.46447 6.74572C8.52678 7.6834 8 8.95517 8 10.2812C8 11.6073 8.52678 12.8791 9.46447 13.8168C10.4021 14.7545 11.6739 15.2812 13 15.2812Z" fill="currentColor" />
</svg>